HIERARCHY
ROOT hip
{
	OFFSET 0.000000 0.000000 0.000000 
	CHANNELS 6 Xposition Yposition Zposition Xrotation Zrotation Yrotation
	JOINT abdomen
	{
		OFFSET 0.000000 3.402643 0.000000 
		CHANNELS 3 Xrotation Zrotation Yrotation
		JOINT chest
		{
			OFFSET 0.000000 8.438565 -0.680529 
			CHANNELS 3 Xrotation Zrotation Yrotation
			JOINT neck
			{
				OFFSET 0.000000 10.207942 -0.272212 
				CHANNELS 3 Xrotation Zrotation Yrotation
				JOINT head
				{
					OFFSET 0.000000 3.130431 0.000000 
					CHANNELS 3 Xrotation Zrotation Yrotation
					End Site
					{
						OFFSET 0.000000 3.130435 0.000000 
					}
				}
			}
			JOINT lCollar
			{
				OFFSET 3.470700 6.669187 -0.816635 
				CHANNELS 3 Yrotation Zrotation Xrotation
				JOINT lShldr
				{
					OFFSET 3.198488 0.000000 0.000000 
					CHANNELS 3 Zrotation Yrotation Xrotation
					JOINT lForeArm
					{
						OFFSET 10.139888 0.000000 0.000000 
						CHANNELS 3 Yrotation Zrotation Xrotation
						JOINT lHand
						{
							OFFSET 8.370511 0.000000 0.000000 
							CHANNELS 3 Zrotation Yrotation Xrotation
							End Site
							{
								OFFSET 4.083176 0.000000 0.000000 
							}
						}
					}
				}
			}
			JOINT rCollar
			{
				OFFSET -3.470700 6.669187 -0.816635 
				CHANNELS 3 Yrotation Zrotation Xrotation
				JOINT rShldr
				{
					OFFSET -3.198488 0.000000 0.000000 
					CHANNELS 3 Zrotation Yrotation Xrotation
					JOINT rForeArm
					{
						OFFSET -10.139888 0.000000 0.000000 
						CHANNELS 3 Yrotation Zrotation Xrotation
						JOINT rHand
						{
							OFFSET -8.370511 0.000000 0.000000 
							CHANNELS 3 Zrotation Yrotation Xrotation
							End Site
							{
								OFFSET -4.083176 0.000000 0.000000 
							}
						}
					}
				}
			}
		}
	}
	JOINT lThigh
	{
		OFFSET 5.308129 -1.633274 1.361059 
		CHANNELS 3 Xrotation Zrotation Yrotation
		JOINT lShin
		{
			OFFSET -2.041588 -20.007561 0.000000 
			CHANNELS 3 Xrotation Zrotation Yrotation
			JOINT lFoot
			{
				OFFSET 0.000000 -19.190928 -1.224953 
				CHANNELS 3 Xrotation Yrotation Zrotation
				End Site
				{
					OFFSET 0.000000 -2.449906 4.627600 
				}
			}
		}
	}
	JOINT rThigh
	{
		OFFSET -5.308129 -1.633274 1.361059 
		CHANNELS 3 Xrotation Zrotation Yrotation
		JOINT rShin
		{
			OFFSET 2.041588 -20.007561 0.000000 
			CHANNELS 3 Xrotation Zrotation Yrotation
			JOINT rFoot
			{
				OFFSET 0.000000 -19.190928 -1.224953 
				CHANNELS 3 Xrotation Yrotation Zrotation
				End Site
				{
					OFFSET 0.000000 -2.449906 4.627600 
				}
			}
		}
	}
}
MOTION
Frames: 10
Frame Time: 0.016667
-0.278996 48.698406 -2.959594 2.203544 -5.764925 -19.762632 0.000000 0.000000 0.000000 1.828622 0.449212 0.312567 7.097221 -2.440760 -1.319658 13.658957 4.562534 -3.350223 1.465062 -5.237667 2.344089 -62.861851 10.552826 9.023483 -44.225880 -2.941198 27.385757 -19.366871 -2.958491 -2.312144 -2.148230 4.621404 2.398221 68.661789 -19.779720 5.171151 33.615585 7.191690 25.483017 2.560282 -5.910792 -3.598863 -9.725044 15.895153 7.843546 29.200172 -2.339883 31.261227 -12.329489 1.612442 -14.507761 -10.710867 -12.623811 -7.624514 20.158924 5.096661 9.068599 -1.182554 -0.086127 10.731092 
-0.640158 48.755116 -3.090052 2.129625 -5.870247 -20.150194 0.000000 0.000000 0.000000 2.052249 0.615233 0.136816 7.543593 -2.128238 -1.436733 13.216490 4.290150 -3.211673 1.321850 -4.467515 2.537011 -63.435402 8.952994 12.565360 -43.872971 -3.889013 28.207644 -17.775101 -1.830816 -2.602153 -2.445096 5.147666 2.625512 68.706375 -21.065418 4.952416 33.240982 7.262821 24.767620 4.649043 -6.424357 -3.675096 -9.169243 16.492071 8.122535 28.408628 -2.315007 31.552685 -11.535798 1.530990 -14.780105 -8.612956 -12.899303 -8.460927 15.812220 4.704422 1.365044 2.286619 0.287093 12.659019 
-0.984704 48.736324 -3.155220 2.728037 -5.002314 -20.021456 0.000000 0.000000 0.000000 1.373924 0.507803 -0.341783 7.407963 -1.981382 -1.856723 13.082458 3.988701 -2.995301 0.555191 -4.075674 1.899388 -64.031013 7.694374 15.432471 -42.798851 -4.631370 30.418463 -17.995457 -1.518945 -2.648688 -2.788446 5.150358 1.997724 68.661163 -22.604836 4.785857 32.929844 7.293111 24.865337 6.403090 -7.057731 -3.771930 -9.666734 16.237307 7.772917 27.808483 -2.269759 31.710331 -10.981276 1.439428 -15.118052 -6.434689 -13.991053 -9.814971 9.256021 4.303477 -5.888976 6.431736 0.772282 13.794971 
-1.501260 48.658897 -3.283982 2.445560 -4.808260 -20.358475 0.000000 0.000000 0.000000 1.617189 0.673817 -0.332008 7.635719 -1.815493 -1.817351 12.886524 4.066899 -2.946589 0.212782 -3.666545 2.104048 -63.601955 6.068743 18.151848 -42.500912 -5.302133 33.565521 -17.477022 -1.925675 -2.598035 -2.906212 5.135619 2.222734 68.951225 -23.568645 3.791854 32.924824 7.071791 24.690285 6.448818 -7.339029 -3.788375 -9.178704 16.950632 8.401067 27.798706 -2.597125 30.967518 -10.807527 1.482260 -15.468842 -4.315587 -14.378535 -10.253618 4.301912 3.402124 -10.834952 10.275643 1.287239 14.175653 
-2.153076 48.537071 -3.374484 2.262202 -4.091986 -20.758722 0.000000 0.000000 0.000000 1.550238 0.585932 -0.244128 7.603879 -1.932810 -1.631908 12.696754 4.232915 -2.888131 0.343583 -3.876945 2.046225 -62.206726 4.283025 20.792419 -42.412807 -6.093538 35.452488 -18.100077 -1.990964 -2.564701 -2.801204 4.849610 2.153214 69.212715 -24.143238 2.783765 32.451874 6.892746 23.997959 5.798186 -7.209293 -3.756502 -8.923708 17.161587 8.773945 27.744465 -2.861655 31.415005 -10.295799 1.505190 -16.084942 -3.544629 -15.304697 -10.454587 1.960650 2.590506 -12.600396 11.360938 1.438758 14.486176 
-2.910133 48.391949 -3.436199 1.917151 -3.187855 -21.167509 0.000000 0.000000 0.000000 1.492980 0.400389 -0.166012 7.455659 -2.254977 -1.603012 13.112136 4.554373 -2.987713 0.309740 -4.142159 1.987807 -60.773071 2.736398 22.713366 -42.134136 -6.753114 35.723015 -17.959257 -1.662768 -2.622737 -2.629057 4.331712 2.074156 69.243126 -24.318165 2.655783 32.209488 6.904956 22.562241 4.896803 -7.426187 -3.743064 -8.114608 17.106737 8.961740 27.368813 -2.914493 31.077490 -9.975177 1.489786 -16.941236 -3.623580 -16.503706 -10.126971 1.972009 1.472663 -12.115343 10.137829 1.415403 15.942449 
-3.811798 48.229565 -3.500990 1.797024 -2.418834 -21.397362 0.000000 0.000000 0.000000 1.239780 0.380859 -0.068358 7.277919 -2.225724 -1.573734 13.197166 4.408048 -2.996697 0.271446 -4.085421 1.752638 -59.710197 1.507858 23.298550 -41.309307 -6.908249 37.206306 -17.508688 -2.286658 -2.534450 -2.568805 4.236310 1.839278 68.820251 -24.227886 2.710344 31.979643 7.013203 21.011469 4.407582 -7.239522 -3.713243 -7.547521 17.553452 9.315852 26.934444 -3.008507 30.586233 -9.425566 1.515548 -17.850945 -3.408196 -17.299990 -9.773381 1.698612 0.536983 -11.173006 8.587528 1.341383 17.558496 
-4.887395 47.985657 -3.539556 1.324076 -1.754235 -21.455992 0.000000 0.000000 0.000000 1.151520 0.322265 -0.146482 7.312109 -2.186504 -1.729865 12.965654 4.047393 -2.946591 0.196105 -4.038972 1.674711 -58.453716 0.888546 23.066935 -40.756577 -6.884763 37.608925 -16.814070 -2.075216 -2.606493 -2.621582 4.238012 1.760644 68.540855 -24.048313 2.196739 32.235405 6.762712 21.147242 3.715744 -6.604985 -3.664222 -6.795011 18.019398 9.544467 26.753300 -2.762807 30.607365 -8.587134 1.466880 -19.173721 -2.500192 -18.011341 -9.517500 1.513408 -0.149200 -7.945539 6.240537 1.016122 18.850927 
-6.139930 47.713596 -3.658371 1.388919 -1.103680 -20.931948 0.000000 0.000000 0.000000 0.678389 0.517552 -0.576148 7.125985 -2.371526 -2.052661 12.746766 4.290633 -3.094085 -0.120552 -4.349333 1.244063 -56.904129 1.062312 21.678444 -40.444878 -6.507738 37.308739 -16.383234 -2.478055 -2.568474 -2.778342 4.029422 1.310051 68.847626 -23.641609 0.952987 32.286835 6.297087 21.731094 3.508477 -6.255546 -3.640305 -6.512875 18.911795 9.650610 26.284136 -2.381788 29.141747 -7.921013 1.435300 -20.489885 -3.623534 -18.631416 -9.209002 5.103668 0.066352 -5.146415 2.703812 0.395018 19.122133 
-7.583147 47.450127 -3.802707 0.883031 -1.013324 -20.804285 0.000000 0.000000 0.000000 0.878551 0.927679 -0.625076 7.055681 -2.508393 -1.896562 12.561530 4.475405 -3.212399 0.109144 -5.086761 1.451742 -55.123821 0.795260 19.161575 -40.170845 -6.016213 35.690121 -16.721994 -1.757417 -2.653213 -2.697141 3.778639 1.495737 68.754944 -22.450796 0.833458 32.328346 6.148157 21.528664 2.543683 -5.334954 -3.574694 -5.039663 20.166668 10.273661 25.183710 -1.895371 27.988005 -6.761191 1.338148 -21.904409 -9.617606 -18.686995 -7.605479 18.539433 0.448628 -5.160698 -4.409942 -0.724424 18.224459 
